<?xml version="1.0" encoding="utf-8"?>
<!-- Generator: Adobe Illustrator 23.0.1, SVG Export Plug-In . SVG Version: 6.00 Build 0)  -->
<svg version="1.1" id="Capa_1" xmlns="http://www.w3.org/2000/svg" xmlns:xlink="http://www.w3.org/1999/xlink" x="0px" y="0px"
	 viewBox="0 0 480 480" style="enable-background:new 0 0 480 480;" xml:space="preserve">
<style type="text/css">
	.st0{fill:#FFFFFF;}
</style>
<g>
	<g>
		<path class="st0" d="M464,464v-24v-64c0-4.4-3.6-8-8-8h-8v-24c0-4.4-3.6-8-8-8h-13.8c26.6-23.3,29.3-63.7,6-90.3
			s-63.7-29.3-90.3-6c-26.6,23.3-29.3,63.7-6,90.3c1.9,2.1,3.9,4.1,6,6H328c-4.4,0-8,3.6-8,8v32c0,4.4,3.6,8,8,8h8v80h-32v-16h8
			c4.4,0,8-3.6,8-8v-32c0-4.4-3.6-8-8-8h-8v-56c0-4.4-3.6-8-8-8h-8v-16h8c4.4,0,8-3.6,8-8v-32c0-4.4-3.6-8-8-8h-8v-16h8
			c4.4,0,8-3.6,8-8v-32c0-4.4-3.6-8-8-8h-48v-32h8c48.6,0,88-39.4,88-88c0-4.4-3.6-8-8-8h-16c-28.7,0-55.6,14.1-72,37.6V72h8
			c35.3,0,64-28.7,64-64c0-4.4-3.6-8-8-8h-16c-23.3,0-44.8,12.7-56,33.1C228.8,12.7,207.3,0,184,0h-16c-4.4,0-8,3.6-8,8
			c0,35.3,28.7,64,64,64h8v45.6C215.6,94.1,188.7,80,160,80h-16c-4.4,0-8,3.6-8,8c0,48.6,39.4,88,88,88h8v32h-48c-4.4,0-8,3.6-8,8
			v24h-8c-4.4,0-8,3.6-8,8v32c0,4.4,3.6,8,8,8h8v16h-8c-4.4,0-8,3.6-8,8v32c0,4.4,3.6,8,8,8h8v56c0,4.4,3.6,8,8,8h8v16h-8
			c-4.4,0-8,3.6-8,8v24h-16v-24c0-4.4-3.6-8-8-8h-8v-16h8c4.4,0,8-3.6,8-8v-32c0-4.4-3.6-8-8-8h-8v-56c0-4.4-3.6-8-8-8H24
			c-4.4,0-8,3.6-8,8v64c0,4.4,3.6,8,8,8h8v16h-8c-4.4,0-8,3.6-8,8v32c0,4.4,3.6,8,8,8h8v16H0v16h480v-16H464z M320,96h7.5
			c-4.1,36.4-34.9,64-71.5,64h-7.5C252.6,123.6,283.3,96,320,96z M296,16h7.4c-3.9,23.1-23.9,40-47.4,40h-7.4
			C252.5,32.9,272.6,16,296,16z M224,56c-23.4,0-43.5-16.9-47.4-40h7.4c23.4,0,43.5,16.9,47.4,40H224z M224,160
			c-36.7,0-67.4-27.6-71.5-64h7.5c36.7,0,67.4,27.6,71.5,64H224z M144,384v16H48v-16H144z M32,320h96v16H32V320z M32,352h96v16H32
			V352z M32,416h96v16H32V416z M144,464H48v-16h96V464z M304,416v16h-96v-16H304z M288,384v16h-96v-16H288z M192,368v-16h88h8v16
			H192z M288,304h-96v-16h96V304z M192,224h96v16h-96V224z M176,256h96v16h-96V256z M176,336v-16h96v16H176z M288,464h-96v-16h96
			V464z M336,288c0-26.5,21.5-48,48-48s48,21.5,48,48s-21.5,48-48,48S336,314.5,336,288z M336,352h96v16h-96V352z M448,464h-96v-16
			h96V464z M448,432h-96v-16h96V432z M448,400h-96v-16h88h8V400z"/>
	</g>
</g>
<g>
	<g>
		<path class="st0" d="M400,288c0,8.8-7.2,16-16,16v16c17.7,0,32-14.3,32-32H400z"/>
	</g>
</g>
<g>
	<g>
		<path class="st0" d="M352,288h16c0-8.8,7.2-16,16-16v-16C366.3,256,352,270.3,352,288z"/>
	</g>
</g>
<g>
	<g>
		<path class="st0" d="M433.3,48c-12.9-2.2-23.1-12.3-25.3-25.3c0-4.4-3.6-8-8-8s-8,3.6-8,8c-2.2,12.9-12.3,23.1-25.3,25.3
			c-4.4,0-8,3.6-8,8s3.6,8,8,8c12.9,2.2,23.1,12.3,25.3,25.3c0,4.4,3.6,8,8,8s8-3.6,8-8c2.2-12.9,12.3-23.1,25.3-25.3
			c4.4,0,8-3.6,8-8S437.7,48,433.3,48z M400,67.4c-3.1-4.5-7-8.3-11.4-11.4c4.5-3.1,8.3-7,11.4-11.4c3.1,4.5,7,8.3,11.4,11.4
			C407,59.1,403.1,63,400,67.4z"/>
	</g>
</g>
<g>
	<g>
		<path class="st0" d="M113.3,224c-12.9-2.2-23.1-12.3-25.3-25.3c0-4.4-3.6-8-8-8s-8,3.6-8,8c-2.2,12.9-12.3,23.1-25.3,25.3
			c-4.4,0-8,3.6-8,8s3.6,8,8,8c12.9,2.2,23.1,12.3,25.3,25.3c0,4.4,3.6,8,8,8s8-3.6,8-8c2.2-12.9,12.3-23.1,25.3-25.3
			c4.4,0,8-3.6,8-8S117.7,224,113.3,224z M80,243.4c-3.1-4.5-7-8.3-11.4-11.4c4.5-3.1,8.3-7,11.4-11.4c3.1,4.5,7,8.3,11.4,11.4
			C87,235.1,83.1,239,80,243.4z"/>
	</g>
</g>
<g>
	<g>
		<polygon class="st0" points="456,192 456,168 440,168 440,192 416,192 416,208 440,208 440,232 456,232 456,208 480,208 480,192 
					"/>
	</g>
</g>
<g>
	<g>
		<path class="st0" d="M128,144v-8h-16v8c0,26.5,21.5,48,48,48v-16C142.3,176,128,161.7,128,144z"/>
	</g>
</g>
</svg>
