<?xml version="1.0" encoding="utf-8"?>
<!-- Generator: Adobe Illustrator 23.0.1, SVG Export Plug-In . SVG Version: 6.00 Build 0)  -->
<svg version="1.1" id="Isolation_Mode" xmlns="http://www.w3.org/2000/svg" xmlns:xlink="http://www.w3.org/1999/xlink" x="0px"
	 y="0px" viewBox="0 0 118.1 21.4" style="enable-background:new 0 0 118.1 21.4;" xml:space="preserve">
<style type="text/css">
	.st0{fill:#FFFFFF;}
</style>
<g>
	<path class="st0" d="M50.6,12.7c0.4,0.8,0.8,1.5,1.2,2.2c0.3,0.6,0.7,1.2,1,1.8c0.4,0.8-0.1,1.6-1,1.7c-0.4,0-0.6-0.2-0.8-0.4
		c-0.1-0.2-0.3-0.5-0.4-0.7c-0.7-1.3-1.5-2.7-2.2-4.1c-0.2-0.3-0.4-0.4-0.8-0.4c-2.1,0-4.2,0-6.3,0c-0.4,0-0.6,0.1-0.8,0.5
		c-0.7,1.3-1.4,2.6-2.2,3.9c-0.1,0.2-0.2,0.4-0.3,0.6c-0.4,0.7-0.9,0.8-1.6,0.4c-0.5-0.3-0.7-0.7-0.4-1.3c0.4-0.8,0.8-1.5,1.3-2.3
		c2-3.6,4-7.2,6-10.8c0.2-0.4,0.5-0.8,1-0.9c0.6-0.1,1,0.2,1.4,0.8c0.7,1.2,1.3,2.4,2,3.6c0.5,1,1.1,1.9,1.6,2.9
		c0.2,0.3,0.3,0.4,0.6,0.4c1.1,0,2.3,0,3.4,0c0.2,0,0.4,0,0.5,0c0.4,0,0.8,0.1,0.9,0.5c0.2,0.4,0.2,0.9-0.1,1.3
		c-0.2,0.3-0.5,0.4-0.8,0.4c-0.8,0-1.6,0-2.4,0C51.1,12.7,50.9,12.7,50.6,12.7z M46.8,10.5c-0.8-1.5-1.6-2.8-2.4-4.3
		c-0.6,0.8-2.3,3.9-2.4,4.3C43.6,10.5,45.1,10.5,46.8,10.5z"/>
	<path class="st0" d="M115.9,11.9c-3.8,0-7.5,0-11.3,0c0,0.2,0,0.4,0,0.6c0,1.5,0,3,0,4.5c0,0.2,0,0.4,0,0.6c0,0.7-0.4,1-1.1,1
		c-0.7,0-1.1-0.3-1.1-1c0-0.1,0-0.3,0-0.4c0-4.3,0-8.5,0-12.8c0-0.2,0-0.4,0-0.6c0.1-0.5,0.3-0.8,0.9-0.8c0.2,0,0.4,0,0.5,0
		c0.4,0.1,0.7,0.3,0.8,0.8c0,0.2,0,0.5,0,0.8c0,1.5,0,3,0,4.5c0,0.2,0,0.4,0,0.6c3.8,0,7.5,0,11.2,0c0-0.2,0-0.4,0-0.6
		c0-1.5,0-3,0-4.5c0-0.1,0-0.3,0-0.4c0-0.9,0.7-1.4,1.5-1.1c0.3,0.1,0.5,0.3,0.6,0.6c0,0.2,0.1,0.5,0.1,0.7c0,4.3,0,8.5,0,12.8
		c0,0.2,0,0.4,0,0.5c-0.1,0.7-0.5,1-1.2,0.9s-1-0.4-1-1.1c0-1.7,0-3.3,0-5C115.9,12.4,115.9,12.2,115.9,11.9z"/>
	<path class="st0" d="M87.8,10.7c0,2.8,2,4.8,4,5.4c2.4,0.7,5-0.2,6.4-2.4c0.3-0.5,0.6-1.1,0.8-1.6c0.2-0.6,0.5-0.8,1.2-0.7
		c0.7,0.1,0.9,0.4,0.9,1c0,0.7-0.2,1.3-0.6,1.9c-1.5,2.4-3.5,4-6.5,4.2c-3.4,0.2-6.6-1.6-7.8-4.8C84.1,8.7,87.5,3.5,92.4,3
		c3.7-0.4,6.5,1.4,8.1,4.4c0.3,0.6,0.5,1.2,0.5,1.9c0,0.5-0.2,0.7-0.7,0.9c-0.3,0.1-0.6,0.1-0.9,0.1c-0.4-0.1-0.6-0.4-0.7-0.8
		c-0.6-2.1-2-3.5-4.2-4.1C91.1,4.4,87.8,7.1,87.8,10.7z"/>
	<path class="st0" d="M8.6,15c0.5-1,1.1-1.8,1.5-2.7c1.6-2.8,3.1-5.6,4.7-8.4C14.9,3.7,15,3.6,15,3.4c0.5-0.8,1.5-0.8,2,0
		c0.1,0.2,0.2,0.4,0.1,0.7c-0.1,0.3-0.2,0.5-0.4,0.8c-2.3,4.2-4.7,8.4-7,12.6c-0.1,0.2-0.3,0.4-0.5,0.6c-0.4,0.4-1,0.4-1.4,0
		c-0.2-0.2-0.4-0.4-0.5-0.6c-2.4-4.2-4.7-8.4-7-12.6C0.3,4.6,0.2,4.4,0,4.1C0,3.9,0,3.6,0.2,3.4c0.2-0.3,0.6-0.5,0.9-0.6
		C1.5,2.8,1.8,2.9,2,3.2C2.2,3.5,2.3,3.7,2.5,4c1.8,3.3,3.6,6.5,5.5,9.8C8.1,14.2,8.3,14.5,8.6,15z"/>
	<path class="st0" d="M29.1,5.1c-0.2,0-0.4,0-0.7,0c-1.5,0-3,0-4.5,0c-0.2,0-0.4,0-0.5,0c-0.4,0-0.8-0.1-0.9-0.5
		c-0.2-0.4-0.2-0.9,0.1-1.3C22.8,3.1,23,3,23.2,2.9c0.2-0.1,0.5,0,0.7,0c4.2,0,8.4,0,12.6,0c0.2,0,0.4,0,0.7,0
		C37.8,3,38.1,3.3,38.1,4s-0.3,1-0.9,1.1c-0.2,0-0.4,0-0.7,0c-1.5,0-3,0-4.5,0c-0.2,0-0.4,0-0.7,0c0,0.2,0,0.4,0,0.7
		c0,3.7,0,7.5,0,11.3c0,0.3,0,0.5,0,0.8c0,0.4-0.3,0.6-0.7,0.7c-0.7,0.2-1.5,0-1.5-1.1c0-1.5,0-3,0-4.5c0-2.4,0-4.7,0-7
		C29.1,5.6,29.1,5.4,29.1,5.1z"/>
	<path class="st0" d="M60.8,5.1c0,0.3,0,0.5,0,0.7c0,3.7,0,7.5,0,11.2c0,0.3,0,0.5,0,0.8c0,0.4-0.3,0.6-0.7,0.7
		c-0.7,0.2-1.5,0-1.5-1.1c0-2.2,0-4.4,0-6.7c0-1.7,0-3.3,0-5c0-0.2,0-0.4,0-0.7c-0.2,0-0.4,0-0.6,0c-1.5,0-3,0-4.5,0
		c-0.2,0-0.4,0-0.5,0c-0.4,0-0.8-0.1-0.9-0.5c-0.2-0.4-0.2-0.9,0.1-1.3c0.1-0.2,0.4-0.2,0.6-0.3c0.2-0.1,0.5,0,0.7,0
		c4.2,0,8.4,0,12.6,0c0.2,0,0.4,0,0.7,0C67.3,3,67.6,3.3,67.6,4S67.3,5,66.7,5c-0.2,0-0.4,0-0.7,0c-1.5,0-3,0-4.5,0
		C61.3,5.1,61.1,5.1,60.8,5.1z"/>
	<path class="st0" d="M76.6,11.8c-2.2,0-4.4,0-6.6,0c-0.1,0-0.3,0-0.4,0c-0.2,0-0.4-0.1-0.5-0.2c-0.5-0.3-0.4-0.9-0.3-1.3
		c0-0.4,0.4-0.7,0.8-0.7c0.1,0,0.3,0,0.4,0c4.3,0,8.7,0,13.1,0c0,0,0.1,0,0.2,0c1,0,1.5,0.7,1.1,1.6c-0.1,0.4-0.4,0.5-0.8,0.6
		c-0.1,0-0.3,0-0.4,0C80.9,11.8,78.8,11.8,76.6,11.8z"/>
	<path class="st0" d="M76.6,2.9c2.2,0,4.5,0,6.7,0c0.4,0,0.9,0.1,1,0.6c0.1,0.3,0.1,0.7,0,1.1C84.3,4.8,84,5,83.6,5.1
		c-0.2,0-0.4,0-0.5,0c-4.3,0-8.7,0-13.1,0c0,0,0,0,0,0c-1.2,0.1-1.3-0.6-1.2-1.5c0-0.4,0.3-0.7,0.8-0.7c0.2,0,0.3,0,0.5,0
		C72.2,2.9,74.4,2.9,76.6,2.9z"/>
	<path class="st0" d="M21,10.8c0,2.1,0,4.2,0,6.2c0,0.2,0,0.5,0,0.8c0,0.4-0.3,0.7-0.7,0.8c-0.2,0-0.5,0-0.7,0
		c-0.4-0.1-0.6-0.3-0.7-0.7c0-0.2,0-0.4,0-0.7c0-4.3,0-8.6,0-12.9c0-0.1,0-0.1,0-0.2c0-0.9,0.7-1.4,1.6-1.1c0.4,0.1,0.6,0.4,0.6,0.7
		c0,0.2,0,0.5,0,0.8C21,6.5,21,8.7,21,10.8z"/>
	<path class="st0" d="M76.6,16.4c2.2,0,4.4,0,6.6,0c0.2,0,0.3,0,0.5,0c0.4,0.1,0.6,0.4,0.7,0.7c0,0.2,0,0.3,0,0.5
		c0,0.5-0.3,0.8-0.9,0.8c-0.7,0-1.3,0-2,0c-3.8,0-7.6,0-11.3,0c-0.1,0-0.2,0-0.3,0c-0.7,0-1-0.3-1-1c0-0.7,0.3-1.1,1.1-1.1
		C72.1,16.4,74.3,16.4,76.6,16.4z"/>
</g>
</svg>
