<?xml version="1.0" encoding="utf-8"?>
<!-- Generator: Adobe Illustrator 23.0.1, SVG Export Plug-In . SVG Version: 6.00 Build 0)  -->
<svg version="1.1" id="Layer_1" xmlns="http://www.w3.org/2000/svg" xmlns:xlink="http://www.w3.org/1999/xlink" x="0px" y="0px"
	 viewBox="0 0 129.4 104.9" style="enable-background:new 0 0 129.4 104.9;" xml:space="preserve">
<style type="text/css">
	.st0{clip-path:url(#SVGID_2_);fill:none;stroke:#434344;stroke-miterlimit:10;}
	.st1{clip-path:url(#SVGID_4_);fill:none;stroke:#434344;stroke-miterlimit:10;}
	.st2{clip-path:url(#SVGID_6_);fill:none;stroke:#434344;stroke-linecap:round;stroke-linejoin:round;stroke-miterlimit:10;}
	.st3{clip-path:url(#SVGID_8_);fill:none;stroke:#434344;stroke-miterlimit:10;}
	.st4{clip-path:url(#SVGID_10_);fill:none;stroke:#434344;stroke-miterlimit:10;}
	.st5{fill:#434344;}
</style>
<g>
	<g>
		<g>
			<g>
				<defs>
					<rect id="SVGID_1_" x="40.1" y="-0.1" width="53.6" height="105"/>
				</defs>
				<clipPath id="SVGID_2_">
					<use xlink:href="#SVGID_1_"  style="overflow:visible;"/>
				</clipPath>
				<path class="st0" d="M89.8,48.3h2c0.7,0,1.3,0.6,1.3,1.3v6.3c0,0.7-0.6,1.3-1.3,1.3h-2"/>
			</g>
		</g>
	</g>
	<g>
		<g>
			<g>
				<defs>
					<rect id="SVGID_3_" x="40.1" y="-0.1" width="53.6" height="105"/>
				</defs>
				<clipPath id="SVGID_4_">
					<use xlink:href="#SVGID_3_"  style="overflow:visible;"/>
				</clipPath>
				<path class="st1" d="M89.7,72.3c0,4.6-3.7,8.3-8.3,8.3H48.9c-4.6,0-8.3-3.7-8.3-8.3V32.5c0-4.6,3.7-8.3,8.3-8.3h32.6
					c4.6,0,8.3,3.7,8.3,8.3L89.7,72.3L89.7,72.3z"/>
			</g>
		</g>
	</g>
	<g>
		<g>
			<g>
				<defs>
					<rect id="SVGID_5_" x="40.1" y="-0.1" width="53.6" height="105"/>
				</defs>
				<clipPath id="SVGID_6_">
					<use xlink:href="#SVGID_5_"  style="overflow:visible;"/>
				</clipPath>
				<path class="st2" d="M84.4,66.7c0,5.9-2.3,8-8,8H53.9c-6.1,0-8-1.4-8-8V38.1c0-6.2,2.1-8,8-8h22.5c6.1,0,8,2.7,8,8V66.7z"/>
			</g>
		</g>
	</g>
	<g>
		<g>
			<g>
				<defs>
					<rect id="SVGID_7_" x="40.1" y="-0.1" width="53.6" height="105"/>
				</defs>
				<clipPath id="SVGID_8_">
					<use xlink:href="#SVGID_7_"  style="overflow:visible;"/>
				</clipPath>
				<path class="st3" d="M82.9,24.2c0,0-2.2-1.9-2.2-5.4V6.2c0,0,0.5-5.8-15.7-5.8h0.3c-16.1,0-15.6,5.8-15.6,5.8v12.6
					c0,3.5-2.2,5.4-2.2,5.4L82.9,24.2z"/>
			</g>
		</g>
	</g>
	<g>
		<g>
			<g>
				<defs>
					<rect id="SVGID_9_" x="40.1" y="-0.1" width="53.6" height="105"/>
				</defs>
				<clipPath id="SVGID_10_">
					<use xlink:href="#SVGID_9_"  style="overflow:visible;"/>
				</clipPath>
				<path class="st4" d="M82.9,80.6c0,0-2.2,1.9-2.2,5.4v12.6c0,0,0.5,5.8-15.7,5.8h0.3c-16.1,0-15.7-5.8-15.7-5.8V86
					c0-3.5-2.2-5.4-2.2-5.4H82.9z"/>
			</g>
		</g>
	</g>
</g>
<g>
	<g>
		<g>
			<path class="st5" d="M70.2,53.2c-0.1-0.2-0.3-0.3-0.5-0.3h-2.8l2.2-8.1c0.1-0.3-0.1-0.5-0.3-0.7c-0.2-0.1-0.5-0.1-0.7,0.1
				l-8.2,10c-0.1,0.2-0.2,0.4-0.1,0.6c0.1,0.2,0.3,0.3,0.5,0.3h2.8l-2.2,8.1c-0.1,0.3,0.1,0.5,0.3,0.7c0.1,0,0.2,0.1,0.3,0.1
				c0.2,0,0.3-0.1,0.5-0.2l8.2-10C70.3,53.7,70.3,53.4,70.2,53.2z M62.7,61l1.7-6.2c0-0.2,0-0.4-0.1-0.5s-0.3-0.2-0.5-0.2h-2.3
				l5.7-6.9l-1.7,6.2c0,0.2,0,0.4,0.1,0.5s0.3,0.2,0.5,0.2h2.3L62.7,61z"/>
		</g>
	</g>
	<g>
		<g>
			<path class="st5" d="M68.5,34.7h-7c-0.3,0-0.6,0.3-0.6,0.6v2.3c0,0.3,0.3,0.6,0.6,0.6h7c0.3,0,0.6-0.3,0.6-0.6v-2.3
				C69.1,35,68.8,34.7,68.5,34.7z M67.9,37H62v-1.2h5.9V37z"/>
		</g>
	</g>
	<g>
		<g>
			<path class="st5" d="M71.5,37H58.4c-1.2,0-2.2,1-2.2,2.2v28.4c0,1.2,1,2.2,2.2,2.2h13.1c1.2,0,2.2-1,2.2-2.2V39.3
				C73.8,38.1,72.8,37,71.5,37z M72.6,67.7c0,0.6-0.5,1.1-1.1,1.1H58.4c-0.6,0-1.1-0.5-1.1-1.1V39.3c0-0.6,0.5-1.1,1.1-1.1h13.1
				c0.6,0,1.1,0.5,1.1,1.1V67.7z"/>
		</g>
	</g>
</g>
</svg>
