<?xml version="1.0" encoding="utf-8"?>
<!-- Generator: Adobe Illustrator 23.0.1, SVG Export Plug-In . SVG Version: 6.00 Build 0)  -->
<svg version="1.1" id="Layer_1" xmlns="http://www.w3.org/2000/svg" xmlns:xlink="http://www.w3.org/1999/xlink" x="0px" y="0px"
	 viewBox="0 0 129.4 105" style="enable-background:new 0 0 129.4 105;" xml:space="preserve">
<style type="text/css">
	.st0{clip-path:url(#SVGID_2_);fill:none;stroke:#434344;stroke-miterlimit:10;}
	.st1{clip-path:url(#SVGID_4_);fill:none;stroke:#434344;stroke-miterlimit:10;}
	.st2{clip-path:url(#SVGID_6_);fill:none;stroke:#434344;stroke-linecap:round;stroke-linejoin:round;stroke-miterlimit:10;}
	.st3{clip-path:url(#SVGID_8_);fill:none;stroke:#434344;stroke-miterlimit:10;}
	.st4{clip-path:url(#SVGID_10_);fill:none;stroke:#434344;stroke-miterlimit:10;}
	.st5{clip-path:url(#SVGID_12_);fill:none;stroke:#434344;stroke-width:1.2;stroke-miterlimit:10;}
	.st6{fill:#FFFFFF;}
	.st7{fill:#434344;}
</style>
<g>
	<g>
		<g>
			<g>
				<defs>
					<rect id="SVGID_1_" x="38.9" y="0" width="53.6" height="105"/>
				</defs>
				<clipPath id="SVGID_2_">
					<use xlink:href="#SVGID_1_"  style="overflow:visible;"/>
				</clipPath>
				<path class="st0" d="M88.6,48.4h2c0.7,0,1.3,0.6,1.3,1.3V56c0,0.7-0.6,1.3-1.3,1.3h-2"/>
			</g>
		</g>
	</g>
	<g>
		<g>
			<g>
				<defs>
					<rect id="SVGID_3_" x="38.9" y="0" width="53.6" height="105"/>
				</defs>
				<clipPath id="SVGID_4_">
					<use xlink:href="#SVGID_3_"  style="overflow:visible;"/>
				</clipPath>
				<path class="st1" d="M88.5,72.4c0,4.6-3.7,8.3-8.3,8.3H47.7c-4.6,0-8.3-3.7-8.3-8.3V32.6c0-4.6,3.7-8.3,8.3-8.3h32.6
					c4.6,0,8.3,3.7,8.3,8.3L88.5,72.4L88.5,72.4z"/>
			</g>
		</g>
	</g>
	<g>
		<g>
			<g>
				<defs>
					<rect id="SVGID_5_" x="38.9" y="0" width="53.6" height="105"/>
				</defs>
				<clipPath id="SVGID_6_">
					<use xlink:href="#SVGID_5_"  style="overflow:visible;"/>
				</clipPath>
				<path class="st2" d="M83.2,66.8c0,5.9-2.3,8-8,8H52.7c-6.1,0-8-1.4-8-8V38.2c0-6.2,2.1-8,8-8h22.5c6.1,0,8,2.7,8,8V66.8z"/>
			</g>
		</g>
	</g>
	<g>
		<g>
			<g>
				<defs>
					<rect id="SVGID_7_" x="38.9" y="0" width="53.6" height="105"/>
				</defs>
				<clipPath id="SVGID_8_">
					<use xlink:href="#SVGID_7_"  style="overflow:visible;"/>
				</clipPath>
				<path class="st3" d="M81.7,24.3c0,0-2.2-1.9-2.2-5.4V6.3c0,0,0.5-5.8-15.7-5.8h0.3C48,0.5,48.5,6.3,48.5,6.3v12.6
					c0,3.5-2.2,5.4-2.2,5.4L81.7,24.3z"/>
			</g>
		</g>
	</g>
	<g>
		<g>
			<g>
				<defs>
					<rect id="SVGID_9_" x="38.9" y="0" width="53.6" height="105"/>
				</defs>
				<clipPath id="SVGID_10_">
					<use xlink:href="#SVGID_9_"  style="overflow:visible;"/>
				</clipPath>
				<path class="st4" d="M81.7,80.7c0,0-2.2,1.9-2.2,5.4v12.6c0,0,0.5,5.8-15.7,5.8h0.3c-16.1,0-15.7-5.8-15.7-5.8V86.1
					c0-3.5-2.2-5.4-2.2-5.4H81.7z"/>
			</g>
		</g>
	</g>
</g>
<g>
	<g>
		<g>
			<g>
				<defs>
					<rect id="SVGID_11_" x="63.8" y="0.3" width="53" height="53"/>
				</defs>
				<clipPath id="SVGID_12_">
					<use xlink:href="#SVGID_11_"  style="overflow:visible;"/>
				</clipPath>
				<path class="st5" d="M90.3,53c14.4,0,26.2-11.7,26.2-26.2S104.8,0.6,90.3,0.6S64.2,12.4,64.2,26.8V53H90.3z"/>
			</g>
		</g>
	</g>
</g>
<path class="st6" d="M90.3,1.1c-14,0-25.4,11.5-25.4,25.6v25.6h25.4c14,0,25.4-11.5,25.4-25.6C115.8,12.6,104.4,1.1,90.3,1.1z"/>
<g>
	<path class="st7" d="M80.1,24.6v-5.3l-2.3,4.1h-0.4l-2.3-4.1v5.3h-0.6v-6.4h0.7l2.5,4.4l2.5-4.4h0.6v6.4
		C80.8,24.6,80.1,24.6,80.1,24.6z"/>
	<path class="st7" d="M83.3,24.7c-0.2,0-0.4,0-0.6-0.1s-0.4-0.2-0.5-0.3c-0.1-0.1-0.3-0.3-0.3-0.5c-0.1-0.2-0.1-0.4-0.1-0.6
		s0-0.4,0.1-0.6s0.2-0.3,0.4-0.5c0.2-0.1,0.4-0.2,0.6-0.3c0.2-0.1,0.5-0.1,0.8-0.1c0.2,0,0.5,0,0.7,0.1c0.2,0,0.5,0.1,0.7,0.2v-0.4
		c0-0.4-0.1-0.7-0.4-1c-0.2-0.2-0.6-0.4-1-0.4c-0.2,0-0.5,0-0.7,0.1c-0.3,0.1-0.5,0.2-0.8,0.4L82,20.3c0.6-0.4,1.2-0.6,1.8-0.6
		s1.1,0.2,1.4,0.5s0.5,0.8,0.5,1.4v2.1c0,0.2,0.1,0.3,0.2,0.3v0.5c-0.1,0-0.2,0-0.2,0c-0.2,0-0.3,0-0.4-0.1s-0.1-0.2-0.1-0.3v-0.4
		c-0.2,0.3-0.5,0.5-0.8,0.7C84.1,24.7,83.7,24.7,83.3,24.7z M83.5,24.3c0.3,0,0.6-0.1,0.9-0.2s0.5-0.3,0.6-0.5
		c0.1-0.1,0.1-0.1,0.1-0.2s0-0.1,0-0.2v-0.8c-0.2-0.1-0.4-0.1-0.6-0.2c-0.2,0-0.4-0.1-0.7-0.1c-0.4,0-0.8,0.1-1.1,0.3
		c-0.3,0.2-0.4,0.4-0.4,0.7c0,0.1,0,0.3,0.1,0.4s0.1,0.2,0.2,0.3c0.1,0.1,0.2,0.2,0.4,0.2C83.2,24.2,83.3,24.3,83.5,24.3z"/>
	<path class="st7" d="M89,24.7c-0.3,0-0.6-0.1-0.9-0.2s-0.5-0.3-0.7-0.5s-0.4-0.5-0.5-0.8s-0.2-0.6-0.2-0.9s0.1-0.6,0.2-0.9
		s0.3-0.6,0.4-0.8c0.2-0.2,0.4-0.4,0.7-0.5c0.3-0.1,0.5-0.2,0.9-0.2s0.8,0.1,1.1,0.3c0.3,0.2,0.5,0.5,0.7,0.8v-3h0.6v5.8
		c0,0.2,0.1,0.3,0.2,0.3v0.5c-0.1,0-0.2,0-0.2,0c-0.1,0-0.3,0-0.4-0.1s-0.2-0.2-0.2-0.3v-0.5c-0.2,0.3-0.4,0.6-0.8,0.7
		C89.5,24.5,89.4,24.7,89,24.7z M89.1,24.2c0.2,0,0.3,0,0.5-0.1s0.3-0.1,0.5-0.2s0.3-0.2,0.4-0.4c0.1-0.1,0.2-0.3,0.2-0.5v-1.5
		c-0.1-0.2-0.1-0.3-0.3-0.5c-0.1-0.1-0.2-0.3-0.4-0.4c-0.2-0.1-0.3-0.2-0.5-0.3c-0.2-0.1-0.3-0.1-0.5-0.1c-0.3,0-0.5,0.1-0.7,0.2
		s-0.4,0.3-0.5,0.4s-0.3,0.4-0.3,0.6c-0.1,0.2-0.1,0.5-0.1,0.7c0,0.3,0,0.5,0.1,0.7s0.2,0.4,0.4,0.6c0.2,0.2,0.3,0.3,0.6,0.4
		C88.7,24.1,88.9,24.2,89.1,24.2z"/>
	<path class="st7" d="M94.7,24.7c-0.3,0-0.7-0.1-0.9-0.2c-0.2-0.1-0.5-0.3-0.7-0.5s-0.4-0.5-0.5-0.8s-0.2-0.6-0.2-0.9
		s0.1-0.6,0.2-0.9s0.3-0.5,0.5-0.8c0.2-0.2,0.5-0.4,0.7-0.5c0.3-0.1,0.6-0.2,0.9-0.2s0.7,0.1,0.9,0.2c0.3,0.1,0.5,0.3,0.7,0.5
		s0.4,0.5,0.5,0.8S97,22,97,22.3v0.1v0.1h-4c0,0.3,0.1,0.5,0.2,0.7s0.2,0.4,0.4,0.6c0.2,0.2,0.3,0.3,0.5,0.4s0.4,0.1,0.6,0.1
		s0.3,0,0.5-0.1c0.2,0,0.3-0.1,0.4-0.2s0.2-0.2,0.3-0.3c0.1-0.1,0.2-0.2,0.2-0.3l0.5,0.1c-0.1,0.2-0.2,0.3-0.3,0.5
		c-0.1,0.1-0.3,0.3-0.5,0.4s-0.4,0.2-0.6,0.2C95.2,24.7,95,24.7,94.7,24.7z M96.5,22c0-0.3-0.1-0.5-0.2-0.7s-0.2-0.4-0.4-0.5
		c-0.2-0.2-0.3-0.3-0.5-0.4s-0.4-0.1-0.6-0.1s-0.4,0-0.7,0.1c-0.2,0.1-0.4,0.2-0.5,0.4c-0.2,0.2-0.3,0.3-0.4,0.5S93.1,21.7,93,22
		H96.5z"/>
	<path class="st7" d="M100.3,18.9V18h0.6v0.9H100.3z M100.3,24.6v-4.7h0.6v4.7C100.9,24.6,100.3,24.6,100.3,24.6z"/>
	<path class="st7" d="M106.3,24.6h-0.6V22c0-0.6-0.1-1-0.2-1.2c-0.2-0.3-0.4-0.4-0.8-0.4c-0.2,0-0.4,0-0.5,0.1
		c-0.2,0.1-0.3,0.2-0.5,0.3c-0.2,0.1-0.3,0.3-0.4,0.4c-0.1,0.2-0.2,0.3-0.3,0.5v2.9h-0.6v-4.7h0.5V21c0.2-0.3,0.5-0.6,0.8-0.8
		c0.4-0.2,0.7-0.3,1.2-0.3c0.3,0,0.5,0,0.7,0.1s0.3,0.2,0.4,0.4c0.1,0.2,0.2,0.4,0.2,0.6c0,0.3,0.1,0.5,0.1,0.8
		C106.3,21.8,106.3,24.6,106.3,24.6z"/>
	<path class="st7" d="M78.7,34.9v0.6h-4.3v-6.4h4.2v0.6H75V32h3.1v0.5H75V35L78.7,34.9L78.7,34.9z"/>
	<path class="st7" d="M81.3,35.6c-0.4,0-0.7-0.1-1.1-0.2c-0.3-0.1-0.7-0.3-0.9-0.5l0.3-0.4c0.3,0.2,0.5,0.4,0.8,0.5s0.6,0.2,0.9,0.2
		c0.4,0,0.7-0.1,0.9-0.2c0.2-0.2,0.3-0.4,0.3-0.7c0-0.1,0-0.2-0.1-0.3s-0.1-0.2-0.3-0.2c-0.1-0.1-0.3-0.1-0.4-0.2
		c-0.2-0.1-0.4-0.1-0.6-0.2c-0.3-0.1-0.5-0.1-0.7-0.2c-0.2-0.1-0.4-0.1-0.5-0.2c-0.1-0.1-0.2-0.2-0.3-0.3s-0.1-0.3-0.1-0.5
		s0-0.4,0.1-0.6s0.2-0.3,0.4-0.4c0.2-0.1,0.3-0.2,0.6-0.3c0.2-0.1,0.4-0.1,0.7-0.1c0.4,0,0.7,0.1,1,0.2s0.5,0.3,0.7,0.5l-0.3,0.4
		c-0.2-0.2-0.4-0.3-0.6-0.4c-0.3-0.1-0.5-0.1-0.8-0.1c-0.2,0-0.3,0-0.5,0.1c-0.1,0-0.3,0.1-0.4,0.2s-0.2,0.2-0.2,0.3
		c-0.1,0.1-0.1,0.2-0.1,0.4c0,0.1,0,0.2,0.1,0.3c0,0.1,0.1,0.1,0.2,0.2c0.1,0.1,0.2,0.1,0.4,0.2c0.1,0,0.3,0.1,0.5,0.1
		c0.3,0.1,0.6,0.1,0.8,0.2c0.2,0.1,0.4,0.2,0.6,0.3s0.3,0.2,0.3,0.4c0.1,0.1,0.1,0.3,0.1,0.5c0,0.4-0.2,0.8-0.5,1
		C82.3,35.5,81.8,35.6,81.3,35.6z"/>
	<path class="st7" d="M86.4,35.3c0,0-0.1,0-0.2,0.1c-0.1,0-0.1,0.1-0.2,0.1s-0.2,0.1-0.3,0.1s-0.2,0-0.4,0c-0.1,0-0.3,0-0.4-0.1
		c-0.1,0-0.2-0.1-0.3-0.2c-0.1-0.1-0.2-0.2-0.2-0.3c-0.1-0.1-0.1-0.2-0.1-0.4v-3.4h-0.7v-0.5h0.7v-1.6h0.6v1.6H86v0.5h-1.1v3.2
		c0,0.2,0.1,0.3,0.2,0.4c0.1,0.1,0.2,0.1,0.4,0.1c0.2,0,0.3,0,0.5-0.1s0.2-0.1,0.3-0.1L86.4,35.3z"/>
	<path class="st7" d="M89,35.6c-0.3,0-0.7-0.1-0.9-0.2c-0.3-0.1-0.5-0.3-0.7-0.5s-0.4-0.5-0.5-0.8s-0.2-0.6-0.2-0.9
		c0-0.3,0.1-0.6,0.2-0.9c0.1-0.3,0.3-0.6,0.5-0.8c0.2-0.2,0.5-0.4,0.7-0.5c0.3-0.1,0.6-0.2,0.9-0.2s0.6,0.1,0.9,0.2s0.5,0.3,0.7,0.5
		s0.4,0.5,0.5,0.8s0.2,0.6,0.2,0.9c0,0.3-0.1,0.6-0.2,0.9c-0.1,0.3-0.3,0.6-0.5,0.8s-0.5,0.4-0.7,0.5C89.7,35.5,89.4,35.6,89,35.6z
		 M87.3,33.2c0,0.3,0,0.5,0.1,0.7s0.2,0.4,0.4,0.6c0.2,0.2,0.3,0.3,0.5,0.4C88.5,35,88.7,35,89,35c0.2,0,0.5-0.1,0.7-0.1
		c0.2-0.1,0.4-0.2,0.5-0.4c0.2-0.2,0.3-0.4,0.4-0.6c0.1-0.2,0.1-0.5,0.1-0.7c0-0.3,0-0.5-0.1-0.7s-0.2-0.4-0.4-0.6
		c-0.2-0.2-0.3-0.3-0.5-0.4s-0.4-0.1-0.7-0.1c-0.2,0-0.5,0-0.7,0.1s-0.4,0.2-0.5,0.4c-0.2,0.2-0.3,0.4-0.4,0.6
		C87.4,32.6,87.3,32.9,87.3,33.2z"/>
	<path class="st7" d="M96.4,35.5h-0.6v-2.6c0-0.6-0.1-1-0.2-1.2s-0.4-0.4-0.8-0.4c-0.2,0-0.4,0-0.5,0.1c-0.2,0.1-0.3,0.2-0.5,0.3
		c-0.2,0.1-0.3,0.3-0.4,0.4c-0.1,0.2-0.2,0.3-0.3,0.5v2.9h-0.6v-4.7h0.6v1.1c0.2-0.3,0.5-0.6,0.8-0.8c0.4-0.2,0.7-0.3,1.2-0.3
		c0.3,0,0.5,0,0.7,0.1s0.3,0.2,0.4,0.4c0.1,0.2,0.2,0.4,0.2,0.6c0,0.3,0.1,0.5,0.1,0.8L96.4,35.5L96.4,35.5z"/>
	<path class="st7" d="M97.7,29.8v-0.9h0.6v0.9H97.7z M97.7,35.5v-4.7h0.6v4.7H97.7z"/>
	<path class="st7" d="M100.8,35.6c-0.2,0-0.4,0-0.6-0.1s-0.4-0.2-0.5-0.3s-0.3-0.3-0.3-0.5c-0.1-0.2-0.1-0.4-0.1-0.6
		c0-0.2,0-0.4,0.1-0.6c0.1-0.2,0.2-0.3,0.4-0.5c0.2-0.2,0.4-0.2,0.6-0.3s0.5-0.1,0.8-0.1c0.2,0,0.5,0,0.7,0.1c0.2,0,0.5,0.1,0.7,0.2
		v-0.4c0-0.4-0.1-0.7-0.4-1c-0.2-0.2-0.6-0.4-1-0.4c-0.2,0-0.5,0-0.7,0.1c-0.3,0.1-0.5,0.2-0.8,0.4l-0.2-0.4
		c0.6-0.4,1.2-0.6,1.8-0.6s1.1,0.2,1.4,0.5s0.5,0.8,0.5,1.4v2.1c0,0.2,0.1,0.3,0.2,0.3v0.5c-0.1,0-0.2,0-0.2,0c-0.2,0-0.3,0-0.4-0.1
		s-0.1-0.2-0.1-0.3v-0.4c-0.2,0.3-0.5,0.5-0.8,0.7C101.6,35.5,101.2,35.6,100.8,35.6z M101,35.1c0.3,0,0.6-0.1,0.9-0.2
		c0.3-0.1,0.5-0.3,0.6-0.5c0.1-0.1,0.1-0.1,0.1-0.2c0-0.1,0-0.1,0-0.2v-0.8c-0.2-0.1-0.4-0.1-0.6-0.2c-0.2,0-0.4-0.1-0.7-0.1
		c-0.4,0-0.8,0.1-1.1,0.3c-0.3,0.2-0.4,0.4-0.4,0.7c0,0.1,0,0.3,0.1,0.4c0.1,0.1,0.1,0.2,0.2,0.3s0.2,0.2,0.4,0.2
		C100.7,35.1,100.8,35.1,101,35.1z"/>
</g>
</svg>
