<?xml version="1.0" encoding="utf-8"?>
<!-- Generator: Adobe Illustrator 23.0.1, SVG Export Plug-In . SVG Version: 6.00 Build 0)  -->
<svg version="1.1" id="Layer_1" xmlns="http://www.w3.org/2000/svg" xmlns:xlink="http://www.w3.org/1999/xlink" x="0px" y="0px"
	 viewBox="0 0 129.4 104.4" style="enable-background:new 0 0 129.4 104.4;" xml:space="preserve">
<style type="text/css">
	.st0{clip-path:url(#SVGID_2_);fill:none;stroke:#434344;stroke-miterlimit:10;}
	.st1{clip-path:url(#SVGID_4_);fill:none;stroke:#434344;stroke-miterlimit:10;}
	.st2{clip-path:url(#SVGID_6_);fill:none;stroke:#434344;stroke-miterlimit:10;}
	.st3{clip-path:url(#SVGID_8_);fill:none;stroke:#434344;stroke-miterlimit:10;}
	.st4{clip-path:url(#SVGID_10_);fill:none;stroke:#434344;stroke-miterlimit:10;}
	.st5{clip-path:url(#SVGID_12_);fill:none;stroke:#434344;stroke-miterlimit:10;}
	.st6{clip-path:url(#SVGID_14_);fill:none;stroke:#434344;stroke-miterlimit:10;}
	.st7{clip-path:url(#SVGID_16_);fill:none;stroke:#434344;stroke-miterlimit:10;}
	.st8{clip-path:url(#SVGID_18_);fill:none;stroke:#434344;stroke-miterlimit:10;}
	.st9{clip-path:url(#SVGID_20_);fill:none;stroke:#434344;stroke-miterlimit:10;}
	.st10{clip-path:url(#SVGID_22_);fill:none;stroke:#434344;stroke-miterlimit:10;}
	.st11{clip-path:url(#SVGID_24_);fill:none;stroke:#434344;stroke-miterlimit:10;}
	.st12{fill:#434344;}
</style>
<g>
	<g>
		<defs>
			<rect id="SVGID_1_" y="0" width="129.4" height="104.4"/>
		</defs>
		<clipPath id="SVGID_2_">
			<use xlink:href="#SVGID_1_"  style="overflow:visible;"/>
		</clipPath>
		<path class="st0" d="M89.9,62.9V72c0,4.5-3.7,8.2-8.2,8.2H49.2c-0.5,0-1,0-1.5-0.1"/>
	</g>
	<g>
		<defs>
			<rect id="SVGID_3_" y="0" width="129.4" height="104.4"/>
		</defs>
		<clipPath id="SVGID_4_">
			<use xlink:href="#SVGID_3_"  style="overflow:visible;"/>
		</clipPath>
		<path class="st1" d="M41,39.9v-7.4c0-4.5,3.7-8.2,8.2-8.2h31.3"/>
	</g>
	<g>
		<defs>
			<rect id="SVGID_5_" y="0" width="129.4" height="104.4"/>
		</defs>
		<clipPath id="SVGID_6_">
			<use xlink:href="#SVGID_5_"  style="overflow:visible;"/>
		</clipPath>
		<path class="st2" d="M85.5,63.2v3.9c0,6.1-2.4,8.3-8.3,8.3H53.7c-1.2,0-2.2-0.1-3.1-0.2"/>
	</g>
	<g>
		<defs>
			<rect id="SVGID_7_" y="0" width="129.4" height="104.4"/>
		</defs>
		<clipPath id="SVGID_8_">
			<use xlink:href="#SVGID_7_"  style="overflow:visible;"/>
		</clipPath>
		<path class="st3" d="M45.4,40.2v-2.9c0-6.5,2.2-8.3,8.3-8.3h23.4c0.6,0,0.4,0,0.9,0.1"/>
	</g>
	<g>
		<defs>
			<rect id="SVGID_9_" y="0" width="129.4" height="104.4"/>
		</defs>
		<clipPath id="SVGID_10_">
			<use xlink:href="#SVGID_9_"  style="overflow:visible;"/>
		</clipPath>
		<line class="st4" x1="53.6" y1="65.5" x2="76.2" y2="65.5"/>
	</g>
	<g>
		<defs>
			<rect id="SVGID_11_" y="0" width="129.4" height="104.4"/>
		</defs>
		<clipPath id="SVGID_12_">
			<use xlink:href="#SVGID_11_"  style="overflow:visible;"/>
		</clipPath>
		<line class="st5" x1="53.6" y1="56.2" x2="76.2" y2="56.2"/>
	</g>
	<g>
		<defs>
			<rect id="SVGID_13_" y="0" width="129.4" height="104.4"/>
		</defs>
		<clipPath id="SVGID_14_">
			<use xlink:href="#SVGID_13_"  style="overflow:visible;"/>
		</clipPath>
		<line class="st6" x1="53.6" y1="46.8" x2="76.2" y2="46.8"/>
	</g>
	<g>
		<defs>
			<rect id="SVGID_15_" y="0" width="129.4" height="104.4"/>
		</defs>
		<clipPath id="SVGID_16_">
			<use xlink:href="#SVGID_15_"  style="overflow:visible;"/>
		</clipPath>
		<line class="st7" x1="53.6" y1="37.5" x2="76.2" y2="37.5"/>
	</g>
	<g>
		<defs>
			<rect id="SVGID_17_" y="0" width="129.4" height="104.4"/>
		</defs>
		<clipPath id="SVGID_18_">
			<use xlink:href="#SVGID_17_"  style="overflow:visible;"/>
		</clipPath>
		<path class="st8" d="M81.5,22c-0.4-0.8-0.7-1.9-0.7-3.2V6.3c0,0,0.4-5.8-15.6-5.8h0.3C49.6,0.5,50,6.3,50,6.3v12.6
			c0,3.5-2.2,5.4-2.2,5.4h33.4"/>
	</g>
	<g>
		<defs>
			<rect id="SVGID_19_" y="0" width="129.4" height="104.4"/>
		</defs>
		<clipPath id="SVGID_20_">
			<use xlink:href="#SVGID_19_"  style="overflow:visible;"/>
		</clipPath>
		<path class="st9" d="M47.8,80.2H83c0,0-2.2,1.9-2.2,5.4v12.6c0,0,0.4,5.8-15.6,5.8h0.3c-16,0-15.6-5.8-15.6-5.8V85.6
			C50,82.1,47.8,80.2,47.8,80.2"/>
	</g>
	<g>
		<defs>
			<rect id="SVGID_21_" y="0" width="129.4" height="104.4"/>
		</defs>
		<clipPath id="SVGID_22_">
			<use xlink:href="#SVGID_21_"  style="overflow:visible;"/>
		</clipPath>
		<path class="st10" d="M26.3,40.5C12.1,40.5,0.5,52,0.5,66.3S12.1,92,26.3,92s25.8-11.5,25.8-25.8V40.5H26.3z"/>
	</g>
	<g>
		<defs>
			<polyline id="SVGID_23_" points="129.4,104.4 0,104.4 0,0 129.4,0 			"/>
		</defs>
		<clipPath id="SVGID_24_">
			<use xlink:href="#SVGID_23_"  style="overflow:visible;"/>
		</clipPath>
		<path class="st11" d="M103.1,62.6c14.2,0,25.8-11.6,25.8-25.8S117.4,11,103.1,11S77.3,22.6,77.3,36.8v25.8H103.1z"/>
	</g>
</g>
<g>
	<path class="st12" d="M115.8,45L104,24.7c-0.4-0.7-1.2-1.2-2-1.2c-0.9,0-1.6,0.4-2,1.2L88.2,45c-0.4,0.7-0.4,1.6,0,2.4
		c0.4,0.7,1.2,1.2,2,1.2h23.4c0.9,0,1.6-0.4,2-1.2C116.2,46.6,116.2,45.7,115.8,45z M115,46.9c-0.3,0.5-0.8,0.8-1.3,0.8H90.3
		c-0.6,0-1.1-0.3-1.3-0.8c-0.3-0.5-0.3-1.1,0-1.5l11.7-20.3c0.3-0.5,0.8-0.8,1.3-0.8c0.6,0,1.1,0.3,1.3,0.8L115,45.4l0,0
		C115.3,45.9,115.3,46.4,115,46.9z"/>
	<path class="st12" d="M104.1,30.1c-0.1-0.2-0.4-0.3-0.6-0.2s-0.3,0.4-0.2,0.6l8.4,14.5H105c-0.2,0-0.4,0.2-0.4,0.4s0.2,0.4,0.4,0.4
		h7.4c0.1,0,0.3-0.1,0.4-0.2c0.1-0.1,0.1-0.3,0-0.4L104.1,30.1z"/>
	<path class="st12" d="M98.9,45h-6.7l9.8-17l0.5,0.8c0.1,0.2,0.4,0.3,0.6,0.2c0.2-0.1,0.3-0.4,0.2-0.6l-0.8-1.4
		c-0.1-0.1-0.2-0.2-0.4-0.2c-0.1,0-0.3,0.1-0.4,0.2L91.1,45.2c-0.1,0.1-0.1,0.3,0,0.4c0.1,0.1,0.2,0.2,0.4,0.2h7.4
		c0.2,0,0.4-0.2,0.4-0.4S99.1,45,98.9,45z"/>
	<path class="st12" d="M102,42.8c-1,0-1.7,0.8-1.7,1.7c0,1,0.8,1.7,1.7,1.7c1,0,1.7-0.8,1.7-1.7S103,42.8,102,42.8z M102,45.5
		c-0.5,0-0.9-0.4-0.9-0.9s0.4-0.9,0.9-0.9s0.9,0.4,0.9,0.9S102.5,45.5,102,45.5z"/>
	<path class="st12" d="M101.1,32.7c-0.2,0-0.5,0.1-0.6,0.3c-0.2,0.2-0.2,0.4-0.2,0.6l0.4,7.5c0,0.5,0.4,0.8,0.9,0.8h0.9
		c0.5,0,0.8-0.4,0.9-0.8l0.4-7.5c0-0.2-0.1-0.5-0.2-0.6c-0.2-0.2-0.4-0.3-0.6-0.3H101.1z M102.9,33.5l-0.4,7.5l0,0h-0.9l0,0
		l-0.4-7.5l0,0l0,0H102.9L102.9,33.5L102.9,33.5z"/>
</g>
<g>
	<g>
		<g>
			<path class="st12" d="M27,62.1c-1.6,0-2.9,1.3-2.9,2.9c0,1.4,1,2.5,2.2,2.8v8.3c0,0.4,0.3,0.7,0.7,0.7s0.7-0.3,0.7-0.7v-8.3
				c1.3-0.3,2.2-1.5,2.2-2.8C29.9,63.4,28.6,62.1,27,62.1z M27,66.5c-0.8,0-1.5-0.7-1.5-1.5s0.7-1.5,1.5-1.5s1.5,0.7,1.5,1.5
				S27.8,66.5,27,66.5z"/>
		</g>
	</g>
	<g>
		<g>
			<path class="st12" d="M27,57.6c-4.1,0-7.4,3.3-7.4,7.4c0,2.1,0.9,4.1,2.5,5.5c0.3,0.3,0.7,0.2,1-0.1c0.3-0.3,0.2-0.7-0.1-1
				c-1.3-1.1-2-2.8-2-4.5c0-3.3,2.7-6,6-6s6,2.7,6,6c0,1.7-0.7,3.3-2,4.5c-0.3,0.3-0.3,0.7-0.1,1c0.1,0.2,0.3,0.2,0.5,0.2
				s0.3-0.1,0.5-0.2c1.6-1.4,2.5-3.4,2.5-5.5C34.4,60.9,31.1,57.6,27,57.6z"/>
		</g>
	</g>
	<g>
		<g>
			<path class="st12" d="M35.4,56.6c-2.2-2.2-5.2-3.5-8.4-3.5s-6.1,1.2-8.4,3.5c-2.2,2.2-3.5,5.2-3.5,8.4c0,4.7,2.8,9,7.1,10.9
				c0.1,0,0.2,0.1,0.3,0.1c0.3,0,0.5-0.2,0.6-0.4c0.2-0.4,0-0.8-0.4-0.9c-3.8-1.7-6.3-5.4-6.3-9.6c0-5.8,4.7-10.5,10.5-10.5
				S37.5,59.2,37.5,65c0,4.2-2.5,7.9-6.3,9.6c-0.4,0.2-0.5,0.6-0.4,0.9c0.2,0.4,0.6,0.5,0.9,0.4C36,74,38.8,69.8,38.8,65
				C38.8,61.8,37.6,58.9,35.4,56.6z"/>
		</g>
	</g>
</g>
</svg>
