<?xml version="1.0" encoding="utf-8"?>
<!-- Generator: Adobe Illustrator 23.0.1, SVG Export Plug-In . SVG Version: 6.00 Build 0)  -->
<svg version="1.1" id="Isolation_Mode" xmlns="http://www.w3.org/2000/svg" xmlns:xlink="http://www.w3.org/1999/xlink" x="0px"
	 y="0px" viewBox="0 0 118.1 21.4" style="enable-background:new 0 0 118.1 21.4;" xml:space="preserve">
<style type="text/css">
	.st0{fill:#FFFFFF;}
</style>
<g>
	<path class="st0" d="M12.1,6.4H-0.3v3h4.5v11.8h3.4V9.4h4.5V6.4z M17.2,6.4h-3.4v14.8h3.4V6.4z M35.2,21.2V6.4h-3.7l-3.9,7.7
		l-3.8-7.7h-3.7v14.8h3.4v-8.9l3.2,6.4h1.8l3.2-6.4v8.9H35.2z M41.5,18.2v-3.1h5.8v-2.8h-5.8V9.4h6.8v-3H38v14.8h10.4v-3H41.5z
		 M75.6,6.4h-3.4v14.8h3.4V6.4z M77,6.4l5.7,14.8h2.9l5.6-14.8h-3.6l-3.5,10.5L80.6,6.4H77z M95.9,18.2v-3.1h5.8v-2.8h-5.8V9.4h6.8
		v-3H92.5v14.8h10.4v-3H95.9z M115.3,21.2h2.8V6.4h-3.4v8.7l-6.9-8.7h-2.7v14.8h3.4v-8.5L115.3,21.2z"/>
	<path class="st0" d="M69.1,4.7C67.2,1.9,63.9,0,60.2,0c-5.9,0-10.7,4.8-10.7,10.7s4.8,10.7,10.7,10.7c5.9,0,10.7-4.8,10.7-10.7
		c0-0.2-0.1-0.4-0.1-0.6h-3.7c0,0.2,0.1,0.4,0.1,0.6c0,3.9-3.1,7-7,7s-7-3.1-7-7s3.1-7,7-7c2.5,0,4.7,1.3,5.9,3.3L69.1,4.7z"/>
	<path class="st0" d="M70.6,8.9L60.9,9v3.4h9.9C71.1,9.8,70.6,8.9,70.6,8.9"/>
	<path class="st0" d="M60.2,13.3c1.4,0,2.6-1.2,2.6-2.6c0-1.4-1.2-2.6-2.6-2.6s-2.6,1.2-2.6,2.6C57.6,12.2,58.8,13.3,60.2,13.3"/>
</g>
</svg>
