<?xml version="1.0" encoding="utf-8"?>
<!-- Generator: Adobe Illustrator 23.0.1, SVG Export Plug-In . SVG Version: 6.00 Build 0)  -->
<svg version="1.1" id="Isolation_Mode" xmlns="http://www.w3.org/2000/svg" xmlns:xlink="http://www.w3.org/1999/xlink" x="0px"
	 y="0px" viewBox="0 0 175.9 55.3" style="enable-background:new 0 0 175.9 55.3;" xml:space="preserve">
<style type="text/css">
	.st0{fill:#FFFFFF;}
</style>
<g>
	<path class="st0" d="M41,40.3H28.6v3h4.5v11.8h3.4V43.3H41V40.3z M46.1,40.3h-3.4v14.8h3.4V40.3z M64.1,55.1V40.3h-3.7L56.5,48
		l-3.8-7.7H49v14.8h3.4v-8.9l3.2,6.4h1.8l3.2-6.4v8.9H64.1z M70.4,52.1V49h5.8v-2.8h-5.8v-2.9h6.8v-3H66.9v14.8h10.4v-3H70.4z
		 M104.5,40.3h-3.4v14.8h3.4V40.3z M105.9,40.3l5.7,14.8h2.9l5.6-14.8h-3.6L113,50.8l-3.5-10.5H105.9z M124.8,52.1V49h5.8v-2.8h-5.8
		v-2.9h6.8v-3h-10.2v14.8h10.4v-3H124.8z M144.2,55.1h2.8V40.3h-3.4V49l-6.9-8.7H134v14.8h3.4v-8.5L144.2,55.1z"/>
	<path class="st0" d="M98,38.6c-1.9-2.8-5.2-4.7-8.9-4.7c-5.9,0-10.7,4.8-10.7,10.7s4.8,10.7,10.7,10.7c5.9,0,10.7-4.8,10.7-10.7
		c0-0.2-0.1-0.4-0.1-0.6H96c0,0.2,0.1,0.4,0.1,0.6c0,3.9-3.1,7-7,7s-7-3.1-7-7s3.1-7,7-7c2.5,0,4.7,1.3,5.9,3.3L98,38.6z"/>
	<path class="st0" d="M99.5,42.8l-9.7,0.1v3.4h9.9C100,43.7,99.5,42.8,99.5,42.8"/>
	<path class="st0" d="M89.1,47.2c1.4,0,2.6-1.2,2.6-2.6c0-1.4-1.2-2.6-2.6-2.6s-2.6,1.2-2.6,2.6C86.5,46.1,87.7,47.2,89.1,47.2"/>
	<path class="st0" d="M175.9,27v-6.4h-12.2V0.2h-7.4V27H175.9z M153.8,27v-6.4h-12.2V0.2h-7.4V27H153.8z M119.1,20.6v-4.2h9.8v-6
		h-9.8V6.6h11.4V0.2h-18.8V27h19.1v-6.4H119.1z M93,27v-7.7l2-2.1l6.7,9.8h8.5L99.7,12.2l9.8-12h-8.3L93,10.4V0.2h-7.4V27H93z
		 M73.2,2.9c-0.6-0.3-1.3-0.6-2-1c-0.8-0.3-1.6-0.7-2.4-0.9c-0.9-0.3-1.8-0.5-2.7-0.7c-1-0.2-1.9-0.3-2.9-0.3
		c-1.3,0-2.6,0.2-3.8,0.6s-2.3,1-3.2,1.7C55.3,3.1,54.5,4,54,5.1S53.2,7.5,53.2,9c0,1,0.1,1.8,0.4,2.6c0.3,0.8,0.7,1.4,1.2,2
		s1.3,1.1,2.1,1.6c0.9,0.5,1.9,0.9,3.1,1.3c0.8,0.3,1.6,0.5,2.3,0.7s1.4,0.4,1.9,0.6c0.6,0.2,1,0.4,1.3,0.7c0.3,0.3,0.5,0.6,0.5,1
		s-0.2,0.6-0.5,0.8c-0.3,0.2-0.9,0.3-1.7,0.3c-1.1,0-2.1-0.2-3.1-0.5s-1.9-0.6-2.7-1c-1-0.4-1.9-0.9-2.8-1.5L52,24.2
		c0.8,0.5,1.7,0.9,2.6,1.3c0.9,0.4,1.9,0.7,2.9,1s2,0.5,3.1,0.6c1,0.2,2,0.2,3,0.2c1.2,0,2.5-0.1,3.7-0.4s2.3-0.8,3.3-1.4
		s1.8-1.5,2.3-2.6c0.6-1.1,0.9-2.4,0.9-4.1c0-1.3-0.2-2.3-0.6-3.2c-0.4-0.9-0.9-1.6-1.6-2.2c-0.7-0.6-1.6-1.2-2.6-1.6
		c-1-0.5-2.1-0.9-3.3-1.2c-0.8-0.3-1.5-0.5-2.1-0.6C63,9.8,62.5,9.6,62,9.5c-0.4-0.2-0.8-0.4-1-0.6c-0.2-0.2-0.3-0.5-0.3-0.9
		c0-0.5,0.2-0.8,0.6-1c0.4-0.2,0.9-0.3,1.6-0.3c0.8,0,1.6,0.1,2.5,0.4c0.8,0.3,1.6,0.5,2.3,0.8c0.8,0.4,1.6,0.8,2.3,1.2L73.2,2.9z
		 M31.5,11.1c0.2-0.8,0.6-1.6,1.1-2.3s1.1-1.2,1.9-1.6c0.8-0.4,1.7-0.6,2.7-0.6s1.9,0.2,2.7,0.6s1.4,0.9,1.9,1.5s0.9,1.4,1.2,2.2
		s0.4,1.7,0.4,2.6s-0.1,1.7-0.4,2.6c-0.2,0.9-0.6,1.6-1.1,2.3c-0.5,0.7-1.1,1.2-1.9,1.6s-1.7,0.6-2.8,0.6s-2-0.2-2.7-0.6
		c-0.8-0.4-1.4-0.9-1.9-1.6s-0.9-1.4-1.1-2.2c-0.3-0.8-0.4-1.7-0.4-2.6C31.1,12.8,31.3,11.9,31.5,11.1 M42.7,26.1
		c1.7-0.8,3.1-1.8,4.3-3s2.2-2.7,2.8-4.3c0.7-1.6,1-3.3,1-5.1c0-1.7-0.3-3.4-1-5c-0.6-1.6-1.6-3.1-2.7-4.4C46,3.1,44.6,2,42.9,1.2
		C41.2,0.4,39.4,0,37.3,0c-2,0-3.8,0.4-5.5,1.1s-3.1,1.7-4.3,3c-1.2,1.2-2.2,2.7-2.9,4.3c-0.7,1.6-1,3.3-1,5.1c0,1.7,0.3,3.4,1,5.1
		c0.7,1.6,1.6,3.1,2.8,4.4c1.2,1.3,2.6,2.3,4.3,3.1c1.7,0.8,3.5,1.2,5.6,1.2C39.2,27.2,41.1,26.9,42.7,26.1 M21.2,2.9
		c-0.6-0.3-1.3-0.6-2-1c-0.8-0.3-1.6-0.7-2.4-0.9S15,0.5,14.1,0.3c-1-0.2-1.9-0.3-2.9-0.3C9.9,0,8.6,0.2,7.4,0.6S5.1,1.5,4.2,2.3
		S2.5,4,2,5.1c-0.6,1.2-0.8,2.5-0.8,4c0,1,0.1,1.8,0.4,2.6s0.7,1.4,1.2,2s1.3,1.1,2.1,1.6c0.9,0.5,1.9,0.9,3.1,1.3
		c0.8,0.3,1.6,0.5,2.3,0.7s1.4,0.4,1.9,0.6c0.6,0.2,1,0.4,1.3,0.7c0.3,0.3,0.5,0.6,0.5,1s-0.2,0.6-0.5,0.8c-0.3,0.2-0.9,0.3-1.7,0.3
		c-1.1,0-2.1-0.2-3.1-0.5s-1.9-0.6-2.7-1c-1-0.4-1.9-0.9-2.8-1.5L0,24.2c0.8,0.5,1.7,0.9,2.6,1.3s1.9,0.7,2.9,1s2,0.5,3.1,0.6
		c1,0.2,2,0.2,3,0.2c1.2,0,2.5-0.1,3.7-0.4s2.3-0.8,3.3-1.4s1.8-1.5,2.3-2.6c0.6-1.1,0.9-2.4,0.9-4.1c0-1.3-0.2-2.3-0.6-3.2
		c-0.4-0.9-0.9-1.6-1.6-2.2c-0.7-0.6-1.6-1.2-2.6-1.6c-1-0.5-2.1-0.9-3.3-1.2c-0.8-0.3-1.5-0.5-2.1-0.6C11,9.8,10.5,9.6,10,9.5
		C9.6,9.3,9.2,9.1,9,8.9C8.9,8.5,8.8,8.2,8.8,7.8c0-0.5,0.2-0.8,0.6-1c0.4-0.2,0.9-0.3,1.6-0.3c0.8,0,1.6,0.1,2.5,0.4
		c0.8,0.3,1.6,0.5,2.3,0.8c0.8,0.4,1.6,0.8,2.3,1.2L21.2,2.9z"/>
</g>
</svg>
