<svg xmlns="http://www.w3.org/2000/svg" viewBox="0 0 175.94 55.34"><defs><style>.cls-1{fill:#43c6ef;}.cls-2{fill:#f8a25f;}.cls-3{fill:#f8a46d;}</style></defs><g id="Layer_2" data-name="Layer 2"><g id="Isolation_Mode" data-name="Isolation Mode"><path class="cls-1" d="M41.05,40.29H28.59v3h4.53V55.11h3.42V43.3h4.51Zm5.09,0H42.72V55.11h3.42Zm18,14.82V40.29H60.4L56.53,48l-3.84-7.75H49V55.11H52.4V46.24l3.22,6.45h1.83l3.22-6.45v8.87Zm6.26-3V49H76.2V46.18H70.35V43.3h6.81v-3H66.93V55.11H77.34v-3ZM104.5,40.29h-3.42V55.11h3.42Zm1.35,0,5.68,14.82h2.88L120,40.29h-3.61L113,50.81l-3.48-10.52Zm19,11.82V49h5.84V46.18h-5.84V43.3h6.8v-3H121.4V55.11h10.42v-3Zm19.33,3h2.75V40.29h-3.42V49l-6.91-8.71h-2.67V55.11h3.42V46.64Z"/><path class="cls-1" d="M98,38.6a10.72,10.72,0,1,0,1.85,6c0-.22,0-.42-.07-.63H96.06c0,.21.07.41.07.63A7.08,7.08,0,1,1,95,40.84Z"/><path class="cls-1" d="M99.46,42.84l-9.74.07v3.42l9.94,0c.38-2.63-.2-3.46-.2-3.46"/><path class="cls-2" d="M89.14,47.24a2.62,2.62,0,1,0-2.62-2.62,2.62,2.62,0,0,0,2.62,2.62"/><path class="cls-3" d="M175.94,27V20.6H163.77V.23H156.4V27Zm-22.11,0V20.6H141.66V.23h-7.37V27ZM119.1,20.6V16.37h9.75v-6H119.1V6.64h11.41V.23H111.73V27h19.12V20.6ZM93,27V19.28l2-2.11L101.71,27h8.47L99.74,12.22l9.76-12h-8.32L93,10.41V.23H85.65V27ZM73.25,2.91c-.6-.31-1.29-.63-2-1S69.64,1.29,68.77,1a23.24,23.24,0,0,0-2.7-.72A14.33,14.33,0,0,0,63.2,0a12.14,12.14,0,0,0-3.8.59A9.86,9.86,0,0,0,56.2,2.3,8.13,8.13,0,0,0,54,5.13a9,9,0,0,0-.81,3.92,7.74,7.74,0,0,0,.4,2.61,5.67,5.67,0,0,0,1.22,2,8.43,8.43,0,0,0,2.12,1.58A19.4,19.4,0,0,0,60,16.56c.81.28,1.57.52,2.29.72s1.35.4,1.91.6a4.59,4.59,0,0,1,1.3.7,1.22,1.22,0,0,1,.48,1,1,1,0,0,1-.48.85,3.09,3.09,0,0,1-1.68.32,11,11,0,0,1-3.12-.45,19.21,19.21,0,0,1-2.74-1,24.33,24.33,0,0,1-2.76-1.47L52,24.22a19.34,19.34,0,0,0,2.62,1.29,30,30,0,0,0,2.95,1,27.62,27.62,0,0,0,3.08.64,21.2,21.2,0,0,0,3,.22,15.88,15.88,0,0,0,3.68-.43,9.93,9.93,0,0,0,3.29-1.41A7.27,7.27,0,0,0,73,22.88a8.31,8.31,0,0,0,.89-4.05,8.27,8.27,0,0,0-.56-3.21,6.09,6.09,0,0,0-1.63-2.24,10.38,10.38,0,0,0-2.55-1.61,26.85,26.85,0,0,0-3.35-1.24c-.78-.25-1.48-.47-2.09-.64a12.7,12.7,0,0,1-1.57-.55,3.45,3.45,0,0,1-1-.62,1.21,1.21,0,0,1-.33-.87,1,1,0,0,1,.58-1A3.45,3.45,0,0,1,63,6.53a8.31,8.31,0,0,1,2.47.39,22.76,22.76,0,0,1,2.29.85A21.54,21.54,0,0,1,70.07,9ZM31.5,11.07a6.74,6.74,0,0,1,1.12-2.26,5.51,5.51,0,0,1,1.91-1.6,5.74,5.74,0,0,1,2.74-.61A5.76,5.76,0,0,1,41.9,8.73,6.65,6.65,0,0,1,43.05,11a9.17,9.17,0,0,1,.38,2.62,9.67,9.67,0,0,1-.36,2.61A7.1,7.1,0,0,1,42,18.47a5.4,5.4,0,0,1-1.91,1.62,5.74,5.74,0,0,1-2.76.62,5.82,5.82,0,0,1-2.73-.6,5.68,5.68,0,0,1-1.91-1.58,6.83,6.83,0,0,1-1.14-2.25,9.17,9.17,0,0,1-.38-2.62,9.47,9.47,0,0,1,.36-2.59m11.23,15a14.21,14.21,0,0,0,4.33-3,13.79,13.79,0,0,0,2.83-4.3,13,13,0,0,0,1-5.08,13.6,13.6,0,0,0-1-5,13.69,13.69,0,0,0-7-7.48A13.11,13.11,0,0,0,37.38.08a13.48,13.48,0,0,0-5.5,1.11,13.81,13.81,0,0,0-4.34,3,13.3,13.3,0,0,0-2.86,4.32,13.11,13.11,0,0,0-1,5.09,13.6,13.6,0,0,0,1,5.06A14.16,14.16,0,0,0,27.4,23a13.84,13.84,0,0,0,4.27,3.07,13,13,0,0,0,5.56,1.17,13.33,13.33,0,0,0,5.5-1.13M21.24,2.91c-.6-.31-1.28-.63-2-1S17.63,1.29,16.76,1a23.24,23.24,0,0,0-2.7-.72A14.33,14.33,0,0,0,11.19,0a12.19,12.19,0,0,0-3.8.59A9.71,9.71,0,0,0,4.2,2.3,8.16,8.16,0,0,0,2,5.13a9,9,0,0,0-.81,3.92,7.74,7.74,0,0,0,.4,2.61,5.56,5.56,0,0,0,1.23,2,8.2,8.2,0,0,0,2.11,1.58A19.4,19.4,0,0,0,8,16.56c.81.28,1.57.52,2.29.72s1.36.4,1.91.6a4.59,4.59,0,0,1,1.3.7,1.22,1.22,0,0,1,.48,1,1,1,0,0,1-.48.85,3.09,3.09,0,0,1-1.68.32,10.88,10.88,0,0,1-3.11-.45,18.92,18.92,0,0,1-2.75-1,23.37,23.37,0,0,1-2.75-1.47L0,24.22a18.91,18.91,0,0,0,2.63,1.29,28.94,28.94,0,0,0,2.94,1,27.79,27.79,0,0,0,3.09.64,21,21,0,0,0,3,.22,15.88,15.88,0,0,0,3.68-.43,9.93,9.93,0,0,0,3.29-1.41A7.39,7.39,0,0,0,21,22.88a8.42,8.42,0,0,0,.88-4.05,8.09,8.09,0,0,0-.56-3.21,6.09,6.09,0,0,0-1.63-2.24,10,10,0,0,0-2.55-1.61,27.28,27.28,0,0,0-3.34-1.24c-.79-.25-1.48-.47-2.1-.64a12.7,12.7,0,0,1-1.57-.55,3.25,3.25,0,0,1-1-.62,1.18,1.18,0,0,1-.34-.87,1,1,0,0,1,.58-1A3.48,3.48,0,0,1,11,6.53a8.42,8.42,0,0,1,2.48.39,23.47,23.47,0,0,1,2.28.85A22.65,22.65,0,0,1,18.07,9Z"/></g></g></svg>